<?xml version="1.0" encoding="iso-8859-1"?>
<!-- Generator: Adobe Illustrator 18.0.0, SVG Export Plug-In . SVG Version: 6.00 Build 0)  -->
<!DOCTYPE svg PUBLIC "-//W3C//DTD SVG 1.1//EN" "http://www.w3.org/Graphics/SVG/1.1/DTD/svg11.dtd">
<svg version="1.1" id="Calque_1" xmlns="http://www.w3.org/2000/svg" xmlns:xlink="http://www.w3.org/1999/xlink" x="0px" y="0px"
	 viewBox="0 0 84 90" style="enable-background:new 0 0 84 90;" xml:space="preserve">
<g>
	<g>
		<path style="fill:#323232;" d="M57.593,76.448c0.026-0.34,0.015-2.291,0.075-2.568l-1.534,1.534
			c-0.51,0.334-1.098,0.532-1.706,0.573L51.42,76.19c-0.146,0.01-0.294,0.007-0.44-0.01l-4.327-0.486
			c-0.643-0.072-1.218-0.43-1.567-0.975l-1.669-3.689c-0.063-0.139-0.149-0.267-0.255-0.377l-0.559-0.583l-0.844,0.844l-2.236,4.03
			c-0.282,0.644-0.909,1.069-1.612,1.092l-3.85,0.128c-2.519,0.276-4.492-0.481-5.606-1.077c0.036,0.032,0.079,0.072,0.11,0.097
			c0.177,0.966,0.394,4.421,0.476,5.332c0.082,0.911,0.544,5.124,0.531,5.704c1.115,0,11.956,0,11.956,0s0.122-2.685,0.204-3.378
			c0.082-0.694,0.707-4.081,0.762-4.543c0.054-0.462,0.258-1.619,0.394-1.959c0.136-0.34,0.177-0.394,0.258-0.272
			c0.082,0.122,0.857,4.203,0.952,4.625c0.095,0.422,0.952,5.396,1.102,5.527c0.449,0,12.473,0,12.473,0
			S57.566,76.802,57.593,76.448z"/>
		<path style="fill:#FFFFFF;" d="M42.542,19.543c-0.449,0.014-3.112,0.112-3.249,0.133c-0.138,0.02-1.285,0.148-1.535,0.454
			c-0.25,0.306-0.367,1.143-0.449,1.423c-0.082,0.281-0.306,4.519,0.092,7.243c0.398,2.724,1.476,8.75,1.571,9.144
			c0.095,0.394,1.755,4.53,2.136,5.631c0.381,1.102,1.782,5.087,2.054,5.441c0.054,0.258,0.299,0.041,0.367-0.218
			c0.068-0.258,1.782-5.849,2.544-6.896c0.544-1.115,1.591-5.591,1.591-6.162s0.694-8.991,0.667-9.957
			c-0.027-0.966,0.054-3.917-0.109-4.421c-0.163-0.503-0.014-1.047-0.326-1.238C46.916,19.55,43.842,19.502,42.542,19.543z"/>
		<path style="fill:#323232;" d="M46.084,39.069c0.041-0.918-0.422-5.931-0.428-6.869c-0.007-0.939-0.36-3.027-0.592-3.639
			c-0.231-0.612-0.782-2.081-0.789-2.204c-0.007-0.122,0.15-0.238,0.15-0.238l0.075-0.408c0,0,0.85-0.905,1.102-1.163
			c-0.415-0.721-1.751-1.249-1.884-1.258c-0.19-0.014-0.109,0.231-0.612,0.272c-0.04-0.003-0.075-0.01-0.109-0.018
			c-0.034,0.007-0.069,0.014-0.109,0.018c-0.503-0.041-0.422-0.286-0.612-0.272c-0.133,0.01-1.469,0.537-1.884,1.258
			c0.252,0.258,1.102,1.163,1.102,1.163l0.075,0.408c0,0,0.156,0.116,0.15,0.238c-0.007,0.122-0.558,1.591-0.789,2.204
			c-0.231,0.612-0.585,2.7-0.592,3.639c-0.007,0.939-0.469,5.951-0.428,6.869s-0.272,4.169-0.265,4.217
			c0.875,3.386,3.035,6.145,3.353,6.414c0.318-0.269,2.478-3.028,3.353-6.414C46.356,43.238,46.043,39.987,46.084,39.069z"/>
		<path style="fill:#323232;" d="M57.593,76.448c0.026-0.34,0.015-2.291,0.075-2.568l-1.534,1.534
			c-0.51,0.334-1.098,0.532-1.706,0.573L51.42,76.19c-0.146,0.01-0.294,0.007-0.44-0.01l-4.327-0.486
			c-0.643-0.072-1.218-0.43-1.567-0.975l-1.669-3.689c-0.063-0.139-0.149-0.267-0.255-0.377l-0.559-0.583l-0.844,0.844l-2.236,4.03
			c-0.282,0.644-0.909,1.069-1.612,1.092l-3.85,0.128c-2.519,0.276-4.492-0.481-5.605-1.077c0.036,0.032,0.079,0.072,0.11,0.097
			c0.177,0.966,0.394,4.421,0.476,5.332c0.082,0.911,0.544,5.124,0.53,5.704c1.115,0,11.956,0,11.956,0s0.122-2.685,0.204-3.378
			c0.082-0.694,0.707-4.081,0.762-4.543c0.054-0.462,0.258-1.619,0.394-1.959c0.136-0.34,0.177-0.394,0.258-0.272
			s0.857,4.203,0.952,4.625c0.095,0.422,0.952,5.396,1.102,5.527c0.449,0,12.473,0,12.473,0S57.566,76.802,57.593,76.448z"/>
	</g>
	<path style="fill:#323232;" d="M49.759,8.722c-0.135-0.044-0.214-0.138-0.264-0.252c-0.175-0.399-0.378-0.177-0.467-0.598
		c-0.025-0.118-0.052-0.238-0.157-0.342c-0.404-0.398-0.063-0.931-0.54-1.281c-0.518-0.379-0.934-0.634-1.384-1.073
		c-0.437-0.427-1.726-0.814-2.437-0.874c-0.334-0.028-0.672-0.054-0.998-0.12c-0.304-0.062-0.502-0.028-0.669,0.206
		c-0.177,0.248-0.51,0.244-0.761,0.022c-0.112-0.099-0.211-0.199-0.396-0.215c-1.088-0.093-2.182-0.218-3.176,0.266
		c-0.648,0.315-1.213,0.733-1.629,1.234c-0.785,0.946-1.277,2.001-1.234,3.197c0.001,0.02-0.006,0.041-0.005,0.061
		c0.007,0.143-0.079,0.251-0.175,0.359c-0.092,0.104-0.167,0.17-0.313,0.035c-0.183-0.168-0.205-0.038-0.226,0.09
		c-0.08,0.497-0.161,0.993-0.248,1.489c-0.017,0.097-0.014,0.193,0.065,0.263c0.296,0.263,0.245,0.561,0.197,0.87
		c-0.062,0.396-0.126,0.794-0.134,1.193l-0.183,0.811c0.15,0.051,0.246,0.128,0.291,0.262c0.239,0.711,0.74,1.283,1.42,1.755
		c0.122,0.085,0.157,0.136,0.025,0.237c-0.295,0.224-0.54,0.499-0.975,0.562c-0.204,0.03-0.186,0.089-0.049,0.218
		c0.322,0.3,1.384,0.323,1.891,0.44c-0.261,0.055-0.425,0.089-0.589,0.123c0.213,0.56,0.213,0.575,0.887,0.59
		c0.42,0.009,0.27,0.065,0.635,0.127c0.173,0.267,0.342,0.523,0.506,0.77c0.003,0.006,0.298,0.595-0.001,1.673
		c-0.3,1.084,1.536,1.636,2.86,1.827c1.325,0.19,4.154-0.081,4.967-0.562c0.811-0.481-0.04-1.481,0.024-2.019
		c0.053-0.078,0.099-0.151,0.155-0.232c0.206-0.3,0.442-0.677,0.69-1.096c0.537-0.153,0.925-0.299,0.805-0.422
		c0.19-0.022,0.322-0.035,0.452-0.053c0.427-0.06,0.803-0.437,0.661-0.7c-0.392-0.73-0.255-0.889-0.377-1.639
		c-0.007-0.041,0.002-0.066,0.011-0.092c0.005-0.011,0.01-0.022,0.016-0.033c0.021-0.023,0.052-0.04,0.105-0.049
		c0.461-0.075,0.627-0.301,0.503-0.685c-0.021-0.066,0.009-0.142,0.013-0.214c0.031-0.615,0.257-1.203,0.346-1.803
		c0.138-0.932,0.209-2.488,0.355-3.423C50.308,9.287,50.29,8.894,49.759,8.722z"/>
	
		<rect x="66.556" y="64.333" transform="matrix(0.6642 0.7476 -0.7476 0.6642 72.8348 -27.9566)" style="fill:#FFFFFF;" width="1.96" height="5.523"/>
	<path style="fill:#323232;" d="M69.964,66.42c1.486-0.186,2.234,1.09,3.278,1.453c0,0,1.479,0.555,1.938,0.741
		c0.458,0.186,0.173,0.518-0.272,0.688c-0.446,0.17-2.649-0.592-2.884-0.169s-0.624,1.021-0.111,1.308
		c0.164,0.092,1.834,0.416,2.447,1.143c1.3,1.541-0.328,2.806-0.328,2.806l0.122-0.58c-1.28,0.086,0.38,1.169-0.75,0.56
		l-2.239-0.306c-0.716-0.386-1.494-0.636-2.299-0.751c-1.572-0.224-1.82-2.772-2.679-3.519"/>
	<path style="fill:#F8B624;" d="M67.814,71.887l1.247-3.717c0.119-0.353,0.501-0.544,0.855-0.425l7.278,2.442
		c0.353,0.119,0.544,0.501,0.425,0.855l-1.247,3.717c-0.119,0.353-0.501,0.544-0.855,0.425l-7.278-2.442
		C67.886,72.623,67.695,72.24,67.814,71.887z"/>
	<path style="fill:#F8B624;" d="M63.5,45.833c-0.001-0.653-0.235-2.67-0.235-2.996c0-0.326-0.462-3.115-0.544-3.849
		c-0.082-0.734-0.136-1.483-0.354-2.081c-0.218-0.599-0.966-5.196-1.047-5.482c-0.082-0.286-0.952-3.727-1.619-4.053
		c-0.204-0.177-0.503,0-0.667,0c0,0-0.041-0.326-0.612-0.531c-0.571-0.204-5.291-2-5.917-2.312
		c-0.626-0.313-3.292-1.687-3.537-2.108c-0.245-0.422-0.49-0.857-0.612-0.952c-0.007-0.005-0.049-0.013-0.116-0.021
		c0.135,0.683,0.063,3.41,0.089,4.332c0.027,0.966-0.667,9.386-0.667,9.957s-1.047,5.046-1.591,6.162
		c-0.762,1.047-2.476,6.638-2.544,6.896c-0.068,0.258-0.313,0.476-0.367,0.218c-0.272-0.354-1.673-4.339-2.054-5.441
		c-0.381-1.102-2.04-5.237-2.135-5.631c-0.095-0.394-1.173-6.42-1.571-9.144c-0.398-2.724-0.173-6.963-0.092-7.243
		c0.007-0.026,0.016-0.06,0.024-0.094c-0.006,0.003-0.015,0.006-0.02,0.009c0,0-0.952,1.251-1.047,1.374
		c-0.095,0.122-1.007,1.36-3.972,2.353c-2.965,0.993-5.346,1.374-5.863,2.312c-0.463-0.027-1.034,0.381-1.102,0.653
		s-1.591,6.679-1.932,7.549s-0.408,1.809-0.231,2.258c-0.49,1.211-1.292,4.339-1.306,5.958c-0.231,1.85-0.734,4.163-0.789,4.462
		c-0.054,0.299-0.136,3.046-0.313,3.318c-0.177,0.272-0.599,1.537-0.163,3.156c0.435,1.619,1.741,5.25,1.891,6.08
		c0.15,0.83,1.809,4.176,2.163,4.924c0.354,0.748,1.578,4.162,1.796,4.666c0.218,0.503,0.082,2.34,0.109,2.489
		c0.026,0.141,1.291,1.532,1.903,2.066c1.114,0.596,3.086,1.354,5.605,1.077l3.85-0.128c0.703-0.023,1.33-0.448,1.612-1.092
		l2.236-4.03l0.844-0.844l0.559,0.583c0.106,0.11,0.192,0.238,0.255,0.377l1.669,3.689c0.349,0.544,0.925,0.903,1.567,0.975
		l4.327,0.486c0.146,0.016,0.293,0.02,0.44,0.01l3.008-0.204c0.608-0.041,1.196-0.238,1.706-0.573l1.534-1.534
		c0.002-0.011,0.004-0.038,0.007-0.044c0.068-0.136,1.292-1.292,1.292-1.632s-0.095-0.993-0.095-0.993s-0.013-0.086-0.013-0.571
		l-2.641-11.234c-0.156-1.078-0.129-0.709-0.129-0.709s-0.041-0.224-0.143-0.979c-0.102-0.755-0.408-2.367-0.755-4.027
		c-0.347-1.661-0.265-3.134-0.204-3.807c0.061-0.673,0.758-7.469,0.734-6.488c-0.02,0.857,0.968,6.869,1.152,7.522
		c0.184,0.653,0.397,2.187,0.458,3.375c0.027,0.524,0.663,2.377,0.917,3.042l6.5,11.417c0.497-0.858,4.837-3.631,4.875-3.833
		c0.054-0.286-2.148-3.113-2.5-3.542c-0.509-0.62-2.625-4.938-2.945-5.769c-0.353-0.917-0.837-4.213-0.824-4.771
		c0.014-0.558-0.009-2.661,0.019-2.96C63.402,47.576,63.501,46.486,63.5,45.833z M30.892,53.147
		c-0.224,0.469-0.49,2.591-0.428,2.795s0,1.387-0.429,1.979c-0.428,0.592-0.653,2.652-0.816,2.469
		c-0.163-0.184-0.265-0.306-0.367-1.041c-0.102-0.735-0.592-1.632-0.877-2.51c-0.286-0.877-0.286-1.816-0.449-2.163
		c-0.163-0.347,0.061-2.326,0.122-2.632c0.061-0.306,0.898-3.877,0.939-4.57s0.204-0.898,0.347-1.163s0.714-3.101,0.714-3.101
		C30.586,44.517,31.116,52.678,30.892,53.147z"/>
</g>
</svg>
