<svg xmlns="http://www.w3.org/2000/svg" xmlns:xlink="http://www.w3.org/1999/xlink" version="1.1" id="Calque_1" x="0px" y="0px" viewBox="0 0 270 70" xml:space="preserve" enable-background="new 0 0 270 70">
  <g>
    <g>
      <path d="M121.229 26.355h-3.015l2.266-12.19 -6.513 12.19h-2.464l-1.98-12.19 -2.266 12.19h-3.015l3.015-16.26h4.137l2.09 12.322 6.623-12.322h4.137L121.229 26.355z" fill="#313131"/>
      <path d="M132.844 26.641c-3.015 0-5.325-2.222-5.325-5.149 0-4.026 3.674-7.613 7.811-7.613 3.125 0 5.369 2.222 5.369 5.281C140.699 23.098 136.98 26.641 132.844 26.641zM134.824 16.563c-2.245 0-4.291 2.112-4.291 4.423 0 1.716 1.232 2.97 2.905 2.97 2.2 0 4.247-2.134 4.247-4.4C137.685 17.84 136.474 16.563 134.824 16.563z" fill="#313131"/>
      <path d="M151.345 26.641c-1.804 0-2.771-0.374-3.96-1.848l-0.286 1.562h-2.685l3.015-16.26h2.926l-0.967 5.193c1.408-1.145 2.464-1.562 4.18-1.562 2.883 0 4.951 2.112 4.951 5.083C158.519 23.12 154.998 26.641 151.345 26.641zM152.577 16.409c-2.398 0-4.356 2.09-4.356 4.643 0 1.716 1.21 2.904 2.971 2.904 2.354 0 4.312-2.046 4.312-4.511C155.504 17.597 154.361 16.409 152.577 16.409z" fill="#313131"/>
      <path d="M165.161 26.355h-2.927l2.267-12.19h2.926L165.161 26.355zM167.757 12.404h-2.926L165.38 9.5h2.928L167.757 12.404z" fill="#313131"/>
      <path d="M173.741 26.355h-2.927l3.015-16.26h2.927L173.741 26.355z" fill="#313131"/>
      <path d="M182.958 21.558c0 1.408 1.188 2.398 2.86 2.398 1.231 0 2.134-0.374 2.97-1.21h3.191c-1.32 2.42-3.829 3.895-6.579 3.895 -3.257 0-5.522-2.134-5.522-5.193 0-3.982 3.674-7.569 7.744-7.569 3.059 0 5.215 2.046 5.215 4.951 0 1.056-0.154 2.046-0.439 2.728H182.958zM187.161 16.563c-1.695 0-3.235 0.968-3.807 2.398h6.754C190.021 17.378 189.031 16.563 187.161 16.563z" fill="#313131"/>
    </g>
    <g>
      <g>
        <path d="M266.829 50.012v5.438l-42.854-9.303 -42.458 10.081v-5.142c13.947-3.432 28.096-6.51 41.965-10.079L266.829 50.012z" fill="#F8B621"/>
        <rect x="247.137" y="54.657" width="4.93" height="11.58" fill="#F8B621"/>
      </g>
      <rect x="3.244" y="61.658" width="232.529" height="4.579" fill="#F8B621"/>
    </g>
    <g>
      <path d="M17.314 56.788c-7.465 0-13.444-6.271-13.444-14.035 0-7.618 5.91-13.853 13.133-13.853 5.253 0 9.85 2.989 12.097 8.202h-5.288c-1.728-2.369-3.732-3.39-6.705-3.39 -4.874 0-8.468 4.01-8.468 9.078 0 5.03 3.871 9.186 8.571 9.186 2.454 0 4.251-0.875 6.325-3.171H29.1C27.095 53.725 22.533 56.788 17.314 56.788z" fill="#313131"/>
      <path d="M41.712 56.641c-6.152 0-10.956-4.629-10.956-10.389 0-5.869 4.77-10.462 10.956-10.462 5.979 0 10.679 4.702 10.679 10.425C52.391 52.049 47.76 56.641 41.712 56.641zM41.678 40.31c-3.56 0-6.29 2.516-6.29 5.942 0 3.317 2.799 5.905 6.29 5.905s6.117-2.516 6.117-5.905C47.795 42.862 45.064 40.31 41.678 40.31z" fill="#313131"/>
      <path d="M68.322 56.313l-7.638-12.722v12.722h-4.597V36.118h4.873l7.569 12.759V36.118h4.597v20.195H68.322z" fill="#313131"/>
      <path d="M83.215 56.641c-3.94 0-6.912-2.624-7.016-6.853h4.77c-0.035 1.64 0.76 2.369 2.246 2.369 1.279 0 2.247-0.692 2.247-1.786 0-0.583-0.242-1.13-0.691-1.458 -0.553-0.401-0.794-0.511-3.352-1.422 -2.903-1.058-4.458-3.099-4.458-5.724 0-3.28 2.765-5.978 6.221-5.978 3.663 0 6.428 2.551 6.359 6.524h-4.7c0.069-1.312-0.553-2.005-1.659-2.005 -0.934 0-1.625 0.511-1.625 1.386 0 0.51 0.346 0.911 0.864 1.239 0.277 0.146 0.311 0.182 2.143 0.802 4.354 1.567 5.46 3.463 5.46 6.233C90.024 53.725 87.086 56.641 83.215 56.641z" fill="#313131"/>
      <path d="M104.918 40.602h-6.981v3.427h6.705v4.447h-6.705v3.354h6.981v4.483H93.34V36.118h11.578V40.602z" fill="#313131"/>
      <path d="M108.891 56.313V36.118h4.597v20.195H108.891z" fill="#313131"/>
      <path d="M129.178 56.313h-10.679V36.118h4.597V51.83h6.083V56.313z" fill="#313131"/>
      <path d="M142.585 56.313h-10.679V36.118h4.597V51.83h6.082V56.313z" fill="#313131"/>
      <path d="M156.892 40.602h-6.98v3.427h6.704v4.447h-6.704v3.354h6.98v4.483h-11.578V36.118h11.578V40.602z" fill="#313131"/>
      <path d="M170.024 56.313l-4.562-6.379v6.379h-4.598V36.118h6.188c2.834 0 4.319 0.438 5.701 1.531 1.486 1.203 2.281 3.025 2.281 5.141 0 2.988-1.451 5.212-4.77 6.27l5.53 7.254H170.024zM166.636 40.055h-1.624v5.76h1.798c2.868 0 4.078-0.911 4.078-2.917C170.888 41.185 170.161 40.055 166.636 40.055z" fill="#313131"/>
    </g>
    <g>
      <g>
        <path d="M191.552 42.344v-2.128c-1.184 1.698-2.516 2.407-4.473 2.407 -3.633 0-6.406-2.665-6.406-6.148 0-3.505 2.709-6.171 6.256-6.171 1.85 0 3.461 0.753 4.623 2.15v-5.999h1.59v15.888H191.552zM186.886 31.767c-2.559 0-4.601 2.064-4.601 4.644 0 2.688 2.063 4.751 4.751 4.751 2.516 0 4.58-2.149 4.58-4.729S189.488 31.767 186.886 31.767z" fill="#313131"/>
        <path d="M207.845 42.344v-1.827c-0.795 1.462-1.957 2.106-3.784 2.106 -2.988 0-4.987-1.591-4.987-5.697v-6.342h1.59v6.342c0 2.988 1.248 4.235 3.526 4.235 2.15 0 3.655-1.333 3.655-4.536v-6.042h1.591v11.76H207.845z" fill="#313131"/>
      </g>
    </g>
    <g>
      <g>
        <path d="M22.698 26.417l-3.28-7.633H8.872l-3.311 7.633H3.171l9.717-22.654h2.544l9.749 22.654H22.698zM14.176 6.338L9.731 16.73h8.798L14.176 6.338z" fill="#313131"/>
        <path d="M40.848 26.815c-2.79 0-5.058-1.134-6.529-3.28v8.767h-2.269V9.649h2.269v2.881c1.41-2.115 3.74-3.28 6.591-3.28 4.997 0 8.829 3.832 8.829 8.829C49.739 22.983 45.845 26.815 40.848 26.815zM40.818 11.335c-3.709 0-6.652 2.912-6.652 6.621 0 3.863 2.851 6.775 6.683 6.775 3.74 0 6.591-2.881 6.591-6.652C47.439 14.216 44.589 11.335 40.818 11.335z" fill="#313131"/>
        <path d="M66.356 26.815c-2.79 0-5.058-1.134-6.529-3.28v8.767h-2.269V9.649h2.269v2.881c1.41-2.115 3.74-3.28 6.591-3.28 4.997 0 8.829 3.832 8.829 8.829C75.246 22.983 71.353 26.815 66.356 26.815zM66.325 11.335c-3.709 0-6.652 2.912-6.652 6.621 0 3.863 2.851 6.775 6.683 6.775 3.74 0 6.591-2.881 6.591-6.652C72.947 14.216 70.096 11.335 66.325 11.335z" fill="#313131"/>
        <path d="M83.066 26.417V3.763h2.269v22.654H83.066z" fill="#313131"/>
        <path d="M93.796 7.809V3.946h2.269v3.863H93.796zM93.796 26.417V9.649h2.269v16.768H93.796z" fill="#313131"/>
      </g>
    </g>
  </g>
</svg>