<?xml version="1.0" encoding="utf-8"?>
<!-- Generator: Adobe Illustrator 18.1.0, SVG Export Plug-In . SVG Version: 6.00 Build 0)  -->
<!DOCTYPE svg PUBLIC "-//W3C//DTD SVG 1.1//EN" "http://www.w3.org/Graphics/SVG/1.1/DTD/svg11.dtd">
<svg version="1.1" id="Calque_1" xmlns="http://www.w3.org/2000/svg" xmlns:xlink="http://www.w3.org/1999/xlink" x="0px" y="0px"
	 viewBox="0 0 767 219.3" enable-background="new 0 0 767 219.3" xml:space="preserve">
<g>
	<path fill="#F8B621" d="M454.3,183.3l10-1c0.6,3.4,1.8,5.8,3.7,7.4c1.8,1.6,4.3,2.4,7.4,2.4c3.3,0,5.8-0.7,7.5-2.1
		c1.7-1.4,2.5-3,2.5-4.9c0-1.2-0.4-2.2-1.1-3.1c-0.7-0.8-1.9-1.6-3.7-2.2c-1.2-0.4-3.9-1.2-8.2-2.2c-5.5-1.4-9.4-3-11.6-5
		c-3.1-2.8-4.7-6.2-4.7-10.2c0-2.6,0.7-5,2.2-7.3c1.5-2.3,3.6-4,6.3-5.2c2.8-1.2,6.1-1.8,10-1.8c6.4,0,11.2,1.4,14.4,4.2
		c3.2,2.8,4.9,6.5,5.1,11.2l-10.3,0.5c-0.4-2.6-1.4-4.5-2.8-5.6c-1.4-1.1-3.6-1.7-6.5-1.7c-3,0-5.3,0.6-7,1.8
		c-1.1,0.8-1.6,1.8-1.6,3.2c0,1.2,0.5,2.2,1.5,3.1c1.3,1.1,4.4,2.2,9.4,3.4c5,1.2,8.7,2.4,11.1,3.7c2.4,1.3,4.3,3,5.6,5.2
		c1.4,2.2,2,4.9,2,8.1c0,2.9-0.8,5.6-2.4,8.2c-1.6,2.5-3.9,4.4-6.9,5.7c-3,1.2-6.6,1.9-11.1,1.9c-6.4,0-11.4-1.5-14.8-4.5
		C457,193.4,455,189,454.3,183.3z"/>
	<path fill="#F8B621" d="M515.7,199.9v-42.2h-15.1V149H541v8.6H526v42.2H515.7z"/>
	<path fill="#F8B621" d="M544.3,174.8c0-5.2,0.8-9.5,2.3-13c1.2-2.6,2.7-4.9,4.7-7c2-2.1,4.2-3.6,6.6-4.6c3.2-1.3,6.8-2,11-2
		c7.5,0,13.5,2.3,18,7c4.5,4.6,6.7,11.1,6.7,19.4c0,8.2-2.2,14.6-6.7,19.3c-4.5,4.6-10.4,7-17.9,7c-7.6,0-13.6-2.3-18-6.9
		C546.5,189.2,544.3,182.9,544.3,174.8z M554.9,174.4c0,5.8,1.3,10.1,4,13.1c2.7,3,6,4.5,10.1,4.5c4.1,0,7.5-1.5,10.1-4.4
		c2.6-2.9,3.9-7.4,3.9-13.3c0-5.8-1.3-10.2-3.8-13c-2.6-2.9-5.9-4.3-10.2-4.3s-7.6,1.5-10.2,4.4
		C556.2,164.2,554.9,168.6,554.9,174.4z"/>
	<path fill="#F8B621" d="M601.7,199.9V149h21.6c5.4,0,9.4,0.5,11.8,1.4c2.5,0.9,4.4,2.5,5.9,4.9c1.5,2.3,2.2,5,2.2,8
		c0,3.8-1.1,7-3.4,9.5c-2.2,2.5-5.6,4.1-10.1,4.7c2.2,1.3,4.1,2.7,5.5,4.3c1.4,1.5,3.4,4.3,5.8,8.3l6.2,9.9h-12.3l-7.4-11.1
		c-2.6-4-4.4-6.4-5.4-7.5c-1-1-2-1.7-3.1-2.1c-1.1-0.4-2.8-0.6-5.2-0.6h-2.1v21.2H601.7z M611.9,170.5h7.6c4.9,0,8-0.2,9.2-0.6
		c1.2-0.4,2.2-1.1,2.9-2.2c0.7-1,1-2.3,1-3.8c0-1.7-0.5-3.1-1.4-4.1c-0.9-1.1-2.2-1.7-3.9-2c-0.8-0.1-3.3-0.2-7.5-0.2h-8V170.5z"/>
	<path fill="#F8B621" d="M652.9,199.9V149h37.7v8.6h-27.4v11.3h25.5v8.6h-25.5v13.8h28.4v8.6H652.9z"/>
</g>
<g>
	<path fill="#313131" d="M380.3,107c0-3.6,0.1-6.5,0-9.4c-0.1-1.8,0.3-2.5,2.3-2.5c9,0.1,18,0.1,27.1,0c2.5,0,2.8,0.9,2.8,3.1
		c-0.1,13.6,0,27.2,0,40.8c0,19.4-0.1,38.8,0.1,58.2c0,2.9-0.8,3.7-3.6,3.5c-4.1-0.2-8.3-0.2-12.4,0c-2.1,0.1-2.5-0.6-2.5-2.6
		c0.1-26.8,0-53.5,0.1-80.3c0-3-0.9-3.8-3.6-3.5c-1.7,0.2-3.5,0-5.6,0c1.5,3.7,2.1,7.3,2.5,11c1,9.8-2.6,18-8.3,25.5
		c-7.8,10.1-17.8,18.1-26.4,27.4c-0.8,0.9-1.8,1.6-2.6,3.1c4.1,0,8,0,11.9,0c8,0,16,0.1,24,0c2.1,0,2.6,0.6,2.6,2.6
		c-0.1,4.8-0.1,9.5,0,14.3c0,1.7-0.3,2.4-2.2,2.4c-20.5-0.1-41.1-0.1-61.6,0c-1.8,0-2.3-0.6-2.2-2.3c0.1-4.7,0.1-9.3,0-14
		c0-1.2,0.3-2.1,1.2-3c9.8-9.9,19.6-19.8,29.4-29.7c4-4,8.4-7.6,11.6-12.3c6.5-9.5,4.2-22.9-8.1-25.8c-7.5-1.8-16.2,2.9-18,13.6
		c-0.8,4.7-0.7,4.7-5.3,4.7c-3.5,0-7.1,0-10.6,0c-1,0-1.7-0.1-1.7-1.4c0-11.5,3.3-21.7,13-28.8c12.7-9.3,32.6-7.5,43.8,3.4
		C378.4,105.5,379.1,106,380.3,107z"/>
	<path fill="#313131" d="M285.9,131.7c1.6-3.3,3.9-5.6,5.5-8.3c2.3-3.8,4.9-7.4,7.6-10.9c1.4-1.8,2-3.7,2-6
		c-0.1-11.1-0.1-22.2,0-33.3c0-2.8-0.7-2.9-2.9-1.6c-3.2,1.8-4,4.7-4,8.1c0,10.5-0.1,21,0.1,31.4c0,2.5-0.5,3.5-3.2,3.3
		c-2.9-0.3-5.8-0.1-8.7,0c-1.5,0.1-1.9-0.5-1.9-1.9c0-18.2,0.1-36.3,0-54.5c0-1.7,0.6-2.1,2.2-2c2.4,0.1,4.8,0.1,7.2,0
		c2.4,0,5.2-0.6,3.6,4.6c5.6-5.9,11.9-4.4,17.8-4.5c4.7-0.1,4.7,0,4.7,4.7c0,8.8,0,17.6,0.5,26.6c3.1-4.4,6.2-8.8,9.3-13.2
		c3.9-5.6,7.7-11.2,11.6-16.9c0.5-0.8,1.1-1.4,2.2-1.4c4.9,0.1,9.9,0,15.4,0c-1.7,2.7-3.1,4.9-4.6,7.1
		c-11.1,16.3-22.3,32.5-33.4,48.8c-4.1,6-8.1,11.9-12.1,18c-0.9,1.4-1.8,2-3.5,1.9C296.2,131.6,291.3,131.7,285.9,131.7z"/>
	<path fill="#313131" d="M275.3,58.1c0-1.9-0.7-2.3-2.4-2.2c-2.9,0.1-5.8,0.2-8.7,0c-2.3-0.2-3,0.5-2.9,2.9
		c0.1,10.6,0.1,21.2,0,31.7c-0.1,8.1-7.3,13.7-14.7,11.4c-4.9-1.5-7.8-5.2-7.8-10.7c-0.1-10.5,0-21-0.1-31.4c0-4.2,0.7-3.9-4-3.9
		c-4,0-8.1-0.1-12.1,0c-1.8,0.1-2.3-0.5-2.2-2.3c0.1-4.3,0-8.5,0.1-12.8c0-1.5-0.3-2.2-2-2.2c-3.3,0.1-6.6,0.1-10,0
		c-1.9-0.1-2.2,0.7-2.2,2.4c0.1,3.1,0,6.2,0,9.3c0,5.3,0,5.5-5.2,5.4c-2.1,0-2.4,0.8-2.3,2.6c0.1,2.9,0,5.8,0,9.2
		c-9.9-12.8-20.9-15.6-34-5.9c0-1.2-0.1-2,0-2.7c0.5-2.7-0.7-3.4-3.2-3.2c-2.7,0.2-5.4,0.2-8.1,0c-2.4-0.2-3.4,0.4-3.1,3
		c0.1,1.5,0.4,3.2-0.3,4.9c-7.3-6.7-15.8-9.5-25.1-7.7c-20,3.8-30.3,24.9-22.5,41.8c0.7,1.6,0.5,2.5-0.8,3.6c-2.4,2.2-5,4.3-7.8,6
		c-9.7,5.9-20.1,6.5-30.5,3.2c-15-4.9-25.9-19.8-26-36.4c-0.1-15.4,11-31,24.9-35.8c14.9-5.1,30.1-1.4,40.3,10.4
		c0.6,0.7,1,1.5,2.2,1.5c7.2,0,14.4,0,21.8,0c-3.3-6.8-7.1-12.8-12.5-17.9C103,22.1,89.8,16.8,74.8,16.8
		c-23.2,0-44.4,14.8-53.3,36.8c-9.4,23.5-1.6,51.3,18.5,66.8c13.7,10.7,29.4,14.4,46.5,11c11.5-2.3,21.7-7.5,29.7-16.2
		c1.2-1.3,1.9-1.5,3.5-0.9c8.6,3.2,17,2.9,25-2c0.8-0.5,1.6-0.8,1.5-2c-0.1-4.7,0-9.4,0-14.4c-8.6,7.1-17.7,9-22.4,5.1
		c8.9-7.7,17.8-15.3,26.6-22.9c0.9,0.7,0.5,1.5,0.5,2.2c0,10.5,0.1,21,0,31.4c0,2,0.4,2.8,2.5,2.6c3-0.2,6-0.2,9,0
		c2.2,0.2,2.5-0.7,2.5-2.6c-0.1-10.1,0-20.1,0-30.2c0-3.4,0.9-6.4,3.3-8.8c3.5-3.5,7.7-4.8,12.5-2.7c4.7,2,6.9,5.7,6.9,10.8
		c0,10.3,0.1,20.5-0.1,30.8c0,2.2,0.6,2.9,2.8,2.7c2.8-0.2,5.6-0.2,8.4,0c1.9,0.1,2.4-0.5,2.4-2.4c-0.1-9.3,0-18.7-0.1-28
		c0-4,0.4-8.1-1-12c-0.2-0.5-0.3-1.3,0.3-1.3c1.8-0.1,3.8-0.3,5.5,0.1c1.3,0.3,0.6,2,0.6,3c0,12.6,0.1,25.1,0,37.7
		c0,2.2,0.3,3.2,2.8,3c2.9-0.3,5.8-0.2,8.7,0c2.3,0.2,2.7-0.7,2.6-2.8c-0.1-12.8,0-25.5-0.1-38.3c0-1.6-0.2-2.9,2.3-2.9
		c2.6,0,2.1,1.5,2.1,3c0.1,7.3,0.1,14.5,0.5,21.8c0.7,13.4,13.8,22.8,26.8,19.4c3.4-0.9,6.2-2.8,9.3-4.5c0.1,4.3,0.1,4.3,4.1,4.3
		c2.6,0,5.2-0.1,7.8,0c1.6,0.1,2.1-0.4,2.1-2C275.3,94.2,275.3,76.2,275.3,58.1z M134.2,72.7c-5.6,5-11.3,10-16.9,15
		c-1,0.9-2.2,2.4-3.2,2.1c-1.5-0.6-0.6-2.6-0.9-3.6c0-10.7,9.9-18.9,20.1-16.8c1.1,0.2,2.6,0.2,2.9,1.3
		C136.5,71.8,134.9,72.1,134.2,72.7z"/>
	<path fill="#080909" d="M425.2,200.6c-5.5,0.9-10.1-5.3-10.1-9.6c0-5.2,4.5-9.8,9.9-9.9c5.5-0.1,9.8,4.2,9.9,9.7
		C435,196.4,430.8,200.6,425.2,200.6z M433.2,191.1c0-5-3.4-8.6-8.2-8.6c-4.5,0-8.2,3.8-8.2,8.4c0,4.5,3.8,8.4,8.1,8.5
		C429.5,199.5,433.2,195.7,433.2,191.1z"/>
	<path fill="#313131" d="M426.9,191.5c1.1,1.6,2,3,2.9,4.5c-1.7,0.9-2.1-0.7-2.7-1.4c-0.7-0.8-1.1-1.8-1.6-2.6
		c-0.4-0.6-1-0.7-1.7-0.6c-0.8,0.1-0.7,0.9-0.8,1.5c0,0.5,0.1,1,0,1.6c-0.1,0.7,0.4,1.9-0.9,1.8c-1.1,0-0.7-1.1-0.7-1.7
		c0-2.5,0-5,0-7.5c0-0.5,0.1-1.3,0.3-1.4c2.2-0.6,4.5-0.5,6.7,0c1.5,0.3,1.5,1.4,1.6,2.6C430.2,190.5,428.8,191.1,426.9,191.5z
		 M425.6,190.1c1.3-0.1,3.2,0.3,3.1-1.9c-0.1-1.9-2-1.3-3.2-1.4c-1.2-0.1-2.4-0.4-2.4,1.7C423,190.7,424.4,190,425.6,190.1z"/>
	<path fill="#F8B621" d="M118.8,200.7c-32.7,0-65.4,0-98,0.1c-2.7,0-3.5-0.7-3.4-3.5c0.2-7.5,0.1-7.5,7.7-7.5
		c63.8,0,127.6,0,191.4,0c4.6,0,4.6,0,4.6,4.4c0,6.5,0,6.5-6.3,6.5C182.7,200.7,150.7,200.7,118.8,200.7
		C118.8,200.7,118.8,200.7,118.8,200.7z"/>
	<path fill="#F8B621" d="M309,171.4c0,5.4,0,5.4-5.2,4.1c-24.4-6.2-48.8-12.3-73.1-18.5c-4.1-1-8.3-1.9-12.4-3
		c-2.2-0.6-4.3-0.2-6.4,0.3c-16.1,4.1-32.1,8.2-48.2,12.2c-12.8,3.3-25.7,6.4-38.5,9.7c-1.6,0.4-2.2,0-2.4-1.7
		c-0.8-8.2-0.7-8.4,7.1-10.4c17.3-4.4,34.5-8.9,51.8-13.2c10.4-2.6,20.9-5.1,31.3-7.8c4.1-1.1,7.5,0.9,11.2,1.6
		c6.6,1.4,13,3.2,19.6,4.9c11.2,2.8,22.5,5.6,33.7,8.4c9.3,2.3,18.6,4.8,28,7c2.8,0.7,4.1,1.9,3.6,4.8
		C308.9,170.3,309,170.8,309,171.4z"/>
	<path fill="#F8B621" d="M267.5,187.1c0-3.4,0-6.8,0-10.2c0-0.6-0.2-1.5,0.1-1.8c2.5-2.7,5.8-0.8,8.6-1.2c1.5-0.2,2.2,0.7,2.2,2.2
		c-0.1,7.6-0.2,15.1-0.2,22.7c0,1.5-0.6,2.1-2,2c-0.1,0-0.2,0-0.3,0c-8.4,0.4-8.4,0.4-8.4-8C267.5,190.8,267.5,188.9,267.5,187.1z"
		/>
</g>
</svg>
